<?xml version="1.0" standalone="no"?>
<!DOCTYPE svg PUBLIC "-//W3C//DTD SVG 20010904//EN"
 "http://www.w3.org/TR/2001/REC-SVG-20010904/DTD/svg10.dtd">
<svg version="1.0" xmlns="http://www.w3.org/2000/svg"
 width="512.000000pt" height="512.000000pt" viewBox="0 0 512.000000 512.000000"
 preserveAspectRatio="xMidYMid meet">

<g transform="translate(0.000000,512.000000) scale(0.100000,-0.100000)"
fill="#000000" stroke="none">
<path d="M520 2911 l0 -1511 733 -1 c402 0 755 -4 782 -9 28 -4 91 -14 140
-21 64 -9 114 -23 173 -51 46 -21 86 -38 88 -38 2 0 4 542 4 1204 0 1322 1
1303 -60 1450 -95 228 -282 390 -530 459 -72 20 -103 21 -702 25 l-628 3 0
-1510z"/>
<path d="M3374 4410 c-342 -36 -619 -296 -679 -636 -14 -79 -15 -224 -9 -1265
l7 -1176 86 38 c47 20 111 42 141 47 30 6 87 16 125 23 51 9 272 14 813 16
l742 4 0 1479 0 1480 -577 -1 c-318 -1 -610 -5 -649 -9z"/>
<path d="M0 2405 l0 -1485 809 0 c801 0 978 -5 1156 -36 173 -29 359 -96 442
-160 l33 -25 0 38 c-1 227 -90 356 -290 423 -150 51 -174 52 -1005 59 -851 7
-801 3 -843 63 -16 21 -17 130 -20 1316 l-2 1292 -140 0 -140 0 0 -1485z"/>
<path d="M4840 2623 c0 -809 -4 -1281 -10 -1304 -6 -19 -22 -46 -36 -60 l-26
-24 -776 -6 c-651 -5 -792 -9 -867 -22 -166 -30 -276 -78 -346 -154 -60 -64
-86 -134 -95 -257 l-7 -98 54 35 c124 79 310 136 531 161 110 13 280 16 989
16 l856 0 6 803 c4 441 7 1111 7 1490 l0 687 -140 0 -140 0 0 -1267z"/>
</g>
</svg>
